<svg width="1175" height="281" viewBox="0 0 1175 281" fill="none" xmlns="http://www.w3.org/2000/svg">
<path d="M147.518 156.328H138.23V180.76C148.191 182.981 154.45 185.673 157.008 188.837L154.888 206H99.0573L97.0381 188.837C98.8554 186.481 102.658 184.193 108.447 181.972V87.4734C102.725 85.4542 98.9227 83.1321 97.0381 80.5072L99.0573 63.344H153.878C166.667 63.4786 177.267 65.0267 185.681 67.9882C194.161 70.8824 200.488 75.6611 204.661 82.3244C208.834 88.9878 210.921 98.0405 210.921 109.483C210.921 140.713 189.786 156.328 147.518 156.328ZM150.547 85.858H138.23V133.814H152.061C161.417 133.814 168.383 131.963 172.96 128.261C177.604 124.492 179.926 118.031 179.926 108.877C179.926 99.6558 177.402 93.531 172.354 90.5022C167.373 87.4061 160.104 85.858 150.547 85.858ZM225.358 117.963C225.358 116.886 225.358 115.809 225.358 114.732C225.425 113.588 225.492 112.444 225.56 111.3C238.415 104.435 252.213 101.002 266.953 101.002C281.693 101.002 292.26 103.795 298.654 109.382C305.049 114.968 308.246 124.223 308.246 137.146V181.164C313.024 182.174 316.827 183.351 319.654 184.698V202.668C312.789 205.966 302.727 207.615 289.467 207.615C288.054 203.914 286.876 199.572 285.934 194.592C280.011 203.274 269.275 207.615 253.727 207.615C247.603 207.615 241.982 206.404 236.867 203.981C231.819 201.558 227.781 198.125 224.752 193.683C221.723 189.173 220.209 183.823 220.209 177.63C220.209 168.409 223.271 161.174 229.396 155.924C235.521 150.607 244.641 147.948 256.756 147.948H279.371V137.953C279.371 127.184 273.65 121.8 262.208 121.8C257.766 121.8 254.232 122.237 251.607 123.112C251.271 128.968 250.463 133.444 249.184 136.54H228.891C226.536 131.626 225.358 125.434 225.358 117.963ZM262.612 186.515C269.679 186.515 275.266 184.462 279.371 180.356V163.395H264.833C254.939 163.395 249.992 167.198 249.992 174.803C249.992 178.236 251.035 181.063 253.122 183.284C255.275 185.438 258.439 186.515 262.612 186.515ZM477.353 126.444L451.507 207.212H424.652L414.051 174.602C411.965 167.938 410.249 159.66 408.902 149.765L408.297 144.818H405.369C404.696 150.203 403.821 155.352 402.744 160.265C401.734 165.179 400.556 169.89 399.21 174.4L389.518 207.212H360.139L334.091 125.939C328.168 123.92 324.096 121.463 321.875 118.569L323.894 102.617H372.355L374.374 118.569C371.884 121.463 367.677 123.92 361.754 125.939L373.768 178.741H376.696C377.437 175.039 378.244 171.337 379.119 167.635C379.994 163.866 380.97 160.03 382.047 156.126L396.081 103.021H419.301L433.133 155.722L438.282 178.741H441.209C446.257 155.386 449.69 139.737 451.507 131.795L452.719 125.939C446.594 123.853 442.488 121.396 440.402 118.569L442.421 102.617H488.358L490.377 118.569C488.088 121.665 483.747 124.29 477.353 126.444ZM558.424 94.7425L545.4 93.1271V63.546H661.201V93.1271L648.177 94.7425C646.359 93.4637 644.643 90.5695 643.028 86.06H618.192V181.972C623.576 184.125 627.379 186.414 629.6 188.837L627.48 206H579.12L577 188.837C578.817 186.481 582.62 184.193 588.409 181.972V86.06H563.573C561.957 90.5695 560.241 93.4637 558.424 94.7425ZM668.672 118.569L670.691 102.617C678.498 100.8 685.7 99.8914 692.296 99.8914C695.594 99.8914 698.623 99.9587 701.382 100.093C704.142 100.161 706.666 100.329 708.954 100.598V183.082C714.339 185.101 718.142 187.423 720.363 190.048L718.344 206H670.691L668.672 190.048C670.556 187.423 674.359 185.101 680.08 183.082V125.535C675.167 123.92 671.364 121.598 668.672 118.569ZM728.642 118.569L730.661 102.617C738.064 100.935 744.896 100.093 751.156 100.093C754.184 100.093 756.944 100.161 759.434 100.295C761.992 100.363 764.28 100.464 766.3 100.598V110.896C769.598 108.136 773.703 105.814 778.617 103.93C783.597 101.978 788.107 101.002 792.145 101.002C807.828 101.002 818.294 104.906 823.544 112.713C826.976 109.415 831.519 106.656 837.173 104.435C842.827 102.146 848.077 101.002 852.923 101.002C863.019 101.002 870.86 102.449 876.446 105.343C882.033 108.237 885.903 113.218 888.057 120.285C890.278 127.285 891.389 137.045 891.389 149.564V183.082C896.84 185.169 900.609 187.491 902.696 190.048L900.677 206H853.125L851.005 190.048C852.889 187.423 856.692 185.101 862.413 183.082V142.093C862.413 134.554 861.403 129.54 859.384 127.05C857.769 125.03 855.211 123.819 851.711 123.415C848.211 123.011 844.442 123.381 840.404 124.526C836.366 125.602 832.731 127.453 829.5 130.078C830.241 135.059 830.611 141.554 830.611 149.564V183.082C836.063 185.169 839.832 187.491 841.918 190.048L839.899 206H792.347L790.227 190.048C792.112 187.423 795.914 185.101 801.635 183.082V142.093C801.635 134.554 800.626 129.54 798.607 127.05C796.991 125.098 794.434 123.92 790.934 123.516C787.501 123.045 783.766 123.348 779.727 124.425C775.756 125.502 772.155 127.319 768.924 129.876V183.082C774.309 185.101 778.112 187.423 780.333 190.048L778.314 206H730.661L728.642 190.048C730.526 187.423 734.329 185.101 740.05 183.082V125.535C735.137 123.92 731.334 121.598 728.642 118.569ZM959.435 207.615C942.878 207.615 930.426 203.207 922.08 194.39C913.734 185.573 909.561 172.751 909.561 155.924C909.561 145.761 911.008 137.011 913.902 129.675C916.797 122.271 920.734 116.55 925.715 112.511C935.34 104.838 946.58 101.002 959.435 101.002C967.983 101.002 975.185 102.415 981.041 105.242C986.964 108.002 991.439 112.68 994.468 119.276C997.564 125.804 999.112 134.722 999.112 146.03C999.112 155.991 994.199 160.972 984.372 160.972H939.546C940.085 169.655 942.306 175.779 946.21 179.347C950.181 182.914 956.44 184.698 964.988 184.698C969.632 184.698 974.074 184.159 978.315 183.082C982.622 181.938 985.752 180.827 987.704 179.75L990.632 178.135L996.79 194.592C996.05 195.467 994.872 196.678 993.257 198.226C992.18 199.236 989.992 200.481 986.694 201.962C983.396 203.442 979.358 204.755 974.579 205.899C969.868 207.043 964.82 207.615 959.435 207.615ZM939.748 143.809L972.459 142.496C972.728 140.814 972.863 138.492 972.863 135.53C972.863 132.771 971.752 129.843 969.531 126.747C967.31 123.651 963.474 122.103 958.022 122.103C952.57 122.103 948.397 123.752 945.503 127.05C942.609 130.348 940.69 135.934 939.748 143.809ZM1071.7 128.059C1061.34 128.059 1054.1 130.045 1050 134.016V181.366C1061.3 183.52 1068.98 186.414 1073.01 190.048L1070.89 206H1011.73L1009.71 190.048C1011.6 187.423 1015.4 185.101 1021.12 183.082V125.535C1016.21 123.92 1012.41 121.598 1009.71 118.569L1011.73 102.617C1019.14 100.935 1025.97 100.093 1032.23 100.093C1035.26 100.093 1038.02 100.161 1040.51 100.295C1043.06 100.363 1045.35 100.464 1047.37 100.598V113.622C1050.53 109.853 1054.61 106.757 1059.59 104.334C1063.76 102.382 1067.93 101.238 1072.11 100.901C1076.28 100.564 1079.41 100.867 1081.5 101.81L1080.89 128.665C1078.2 128.261 1075.14 128.059 1071.7 128.059Z" fill="black"/>
</svg>
